<svg id="Livello_1" data-name="Livello 1" xmlns="http://www.w3.org/2000/svg" viewBox="0 0 168.21 192.93"><defs><style>.cls-1{fill:#7fabbb;}.cls-2{fill:#3a4f79;}.cls-3{fill:#3c517a;}.cls-4{fill:#3c517b;}.cls-5{fill:#3b5079;}.cls-6{fill:#3b507a;}</style></defs><path class="cls-1" d="M384,362.42c0,14.82-.05,29.64,0,44.46,0,2.78-.75,4.5-3.3,6q-39,22.33-77.82,44.95c-2.19,1.28-3.83,1.09-5.92-.12q-39.32-22.74-78.73-45.33a4.5,4.5,0,0,1-2.4-4.47q.06-45.45,0-90.91a4.86,4.86,0,0,1,2.68-4.81q39.58-22.77,79.08-45.73c1.93-1.11,3.35-.76,5.06.23q38.89,22.47,77.85,44.87c2.59,1.49,3.57,3.38,3.54,6.43C384,332.78,384.05,347.6,384,362.42Z" transform="translate(-215.91 -265.74)"/><path class="cls-2" d="M376.71,362.45c0,13.16-.07,26.31.05,39.46,0,3.16-.87,5-3.81,6.72-23.12,13.18-46.14,26.56-69.14,39.95-2.52,1.46-4.63,1.83-7.33.25q-35.16-20.46-70.44-40.7a5,5,0,0,1-2.78-4.82q.06-40.95,0-81.91c0-2.5,1-3.88,3.14-5.09q35.28-20.25,70.45-40.68a5.5,5.5,0,0,1,6.36.05q34.31,19.94,68.79,39.56c3.34,1.9,4.92,4.14,4.83,8.26C376.52,336.48,376.71,349.47,376.71,362.45Z" transform="translate(-215.91 -265.74)"/><path class="cls-1" d="M341.13,375.78a37.74,37.74,0,0,0,0,5c.49,3.72-1.18,5.88-4.47,7.35a80.22,80.22,0,0,0-7.87,4.32c-2.09,1.26-4,2.23-6.4.53-1.69-1.21-3.11.1-4.55.91-4.79,2.69-9.67,5.22-14.38,8.05a6.1,6.1,0,0,1-6.95,0c-3.58-2.12-7.27-4-10.92-6-3.23-1.76-5.84-4.07-10.45-2.22-2.76,1.1-6.24-2.48-9.2-4.25-2.47-1.47-6.43-1.93-6.84-5.22a64.48,64.48,0,0,1,.1-16.42,1.64,1.64,0,0,1,.92-1.11c7.15-2.06,6.08-7.9,5.66-13s1.19-8.46,6.21-10.3c2.93-1.08,5.5-3.12,8.34-4.49,2.51-1.21,4-2.79,3.57-5.77a4.35,4.35,0,0,1,3-5.1,3.62,3.62,0,0,0,.43-.24c13.45-7.75,13.42-7.71,26.59.64,1.69,1.08,2.38,2.23,2.08,4-.62,3.61,1.16,5.63,4.32,6.83.62.24,1.15.7,1.77.92,9.26,3.22,14.2,9,12,19.39-.37,1.74-.4,4.17,1.76,4.73C342.5,366.06,341.4,371.05,341.13,375.78Z" transform="translate(-215.91 -265.74)"/><path class="cls-2" d="M316.25,342c5,1,8.55,4.17,12.59,6.32,1.55.82,2.24,10.13,1,11.28a2.07,2.07,0,0,1-1.74.38c-7.89-2.39-12,4.81-18.1,7.06-1,.36-1,1.66-1,2.67,0,1.5,0,3,0,4.49.09,6.28-2,13.56,8.82,15.5l-16.53,9.18a2.76,2.76,0,0,1-2.84-.11l-14.62-8.11c.49-1.78,1.71-2.09,2.7-2.52,3.46-1.53,4.2-4.08,4.68-7.81,1.24-9.65-1.62-16.15-11.26-19.25-2.61-.84-4.82-3.12-7.85-1.19a1.43,1.43,0,0,1-2.12-.49c-1.63-2.43.1-10.59,2.66-12.07,2.74-1.58,5.51-3.1,8.27-4.63,1.87-1,3.28-1,3,1.65-.36,3.32,2,4.37,4.18,6,7.94,5.94,15.32,6.65,23.68.23C315,348.11,316.41,345.92,316.25,342Z" transform="translate(-215.91 -265.74)"/><path class="cls-3" d="M273.08,383c0,6.42-.07,6.46-5.66,3.25-4.94-2.84-6.57-6.82-5.17-12.39.3-1.19.61-1.64,2-1.34C269.8,373.77,273.08,377.57,273.08,383Z" transform="translate(-215.91 -265.74)"/><path class="cls-3" d="M276.74,382.49c0-4.71,4-9.11,8.88-10.07a1.4,1.4,0,0,1,1.88.95c1.71,3.88-.4,10.15-4.19,12.34-.15.08-.29.18-.43.26C276.71,389.48,276.71,389.48,276.74,382.49Z" transform="translate(-215.91 -265.74)"/><path class="cls-4" d="M323.25,383.07c-.25,1.56.86,4-.7,5s-3.31-.95-4.84-1.83c-5.19-3-6.68-6.53-5.32-12.19.24-1,.34-1.86,1.83-1.66C318.77,373,323.24,378.06,323.25,383.07Z" transform="translate(-215.91 -265.74)"/><path class="cls-3" d="M326.9,382.69a10.1,10.1,0,0,1,8.76-10,1.57,1.57,0,0,1,1.72.53c1.41,1.87,0,10.09-2,11.42-.83.54-1.73,1-2.61,1.46C326.9,389.32,326.89,389.32,326.9,382.69Z" transform="translate(-215.91 -265.74)"/><path class="cls-5" d="M298.14,345.59c-.51,1.47,1.12,3.86-1.22,5-1.31.64-9.07-4.92-9.44-6.46a1.08,1.08,0,0,1,0-.5c.84-2.87-2.36-7.4,1.79-8.52C293.19,334,298.14,340.44,298.14,345.59Z" transform="translate(-215.91 -265.74)"/><path class="cls-5" d="M312.62,340.23c0,4.6-4.79,10-9.08,10.29a1.94,1.94,0,0,1-1.3-.29c-1.3-1.19-.14-10.39,1.47-11.49,1.08-.74,2.28-1.32,3.43-1.95C312.63,333.78,312.63,333.79,312.62,340.23Z" transform="translate(-215.91 -265.74)"/><path class="cls-3" d="M284.66,368.36c-8.12,6.17-10.87,6.38-17.39,1.87-1.92-1.33-2.09-2.07,0-3.5C274.19,361.85,274.84,361.84,284.66,368.36Z" transform="translate(-215.91 -265.74)"/><path class="cls-3" d="M334.44,368.65c-7.83,6-10.08,6.2-16.91,1.51-1.66-1.14-2.66-1.79-.18-3.38C324.66,362.08,327.71,362.31,334.44,368.65Z" transform="translate(-215.91 -265.74)"/><path class="cls-6" d="M309.53,330.87c-8.66,6.63-9.26,6.64-18.91.28C297.08,324.25,301.9,324.18,309.53,330.87Z" transform="translate(-215.91 -265.74)"/></svg>