<svg xmlns="http://www.w3.org/2000/svg" viewBox="0 0 162.02 125.99"><defs><style>.cls-1{fill:#fefefe;}.cls-2{fill:#0188fe;}.cls-3{fill:#1e9e75;}.cls-4{fill:#95d07d;}.cls-5{fill:#7dc7af;}.cls-6{fill:#72bcfe;}.cls-7{fill:#3ea77d;}.cls-8{fill:#0d91c1;}.cls-9{fill:#14919a;}.cls-10{fill:#4dae31;}.cls-11{fill:#169995;}.cls-12{fill:#44acb5;}</style></defs><g id="Livello_2" data-name="Livello 2"><g id="Livello_1-2" data-name="Livello 1"><path class="cls-1" d="M107.87,125.85c11,0,22,0,32.95.14,2.44,0,4-.65,5.22-2.83,4.89-8.7,9.91-17.32,14.93-25.95.79-1.36,1.52-2.79.66-4.21-5.86-9.64-10.66-19.91-17.38-29-4.56-10.15-11-19.26-16.12-29.09-1.53-2.93-3.4-3.8-6.64-3.81-10.76,0-21.54.66-32.3-.35-4.52-10.35-11-19.61-16.37-29.5C72-.21,70.57.05,69.27.05,59.14,0,49,.1,38.9,0a4.72,4.72,0,0,0-4.79,2.66c-5.41,9.7-10.94,19.33-16.42,29S6.54,50.87.8,60.37c-1.39,2.3-.77,4,.37,5.94,4.69,8,9.43,16,13.88,24.17,1.65,3,3.67,4,7.06,4.09C32.73,94.72,43.36,94,54,95c5.39,9.52,10.85,19,16.13,28.58,1.19,2.14,2.77,2.44,4.9,2.42C86,125.88,96.91,125.88,107.87,125.85Z"/><path class="cls-2" d="M54,95c-10.61-1-21.24-.25-31.86-.4-3.39,0-5.41-1.08-7.06-4.09C10.6,82.32,5.86,74.33,1.17,66.31,0,64.35-.59,62.67.8,60.37c5.74-9.5,11.28-19.14,16.89-28.73a.76.76,0,0,0,.4.46q8,14,16,28A4.85,4.85,0,0,0,38.76,63c10.76-.17,21.52-.19,32.28-.27a1.89,1.89,0,0,0,.94.12l-.23.34L71,65c-.76,1.28-1.57,2.54-2.27,3.85-4.56,8.59-10.37,16.49-13.9,25.64A2.56,2.56,0,0,0,54,95Z"/><path class="cls-3" d="M89.19,30.73c10.76,1,21.54.32,32.3.35,3.24,0,5.11.88,6.64,3.81,5.12,9.83,11.56,18.94,16.12,29.09-1.52.37-1.76,1.83-2.45,2.9-5.53,8.58-9.76,17.94-15.71,26.27-1.89-1.68-2.9-4-4.19-6.05-4.73-7.67-8.58-15.87-14-23.11a2.81,2.81,0,0,0-2.63-1l-33.51.22.23-.34c.65-1.14,1.32-2.26,2-3.42,5-9.19,11.25-17.75,15-27.62Z"/><path class="cls-4" d="M89.19,30.73c-.07.37-.15.74-.22,1.11L54.71,32l-36.62.13a.76.76,0,0,1-.4-.46c5.48-9.65,11-19.28,16.42-29A4.72,4.72,0,0,1,38.9,0C49,.1,59.14,0,69.27.05c1.3,0,2.77-.26,3.55,1.18C78.18,11.12,84.67,20.38,89.19,30.73Z"/><path class="cls-5" d="M126.09,93.15c5.95-8.33,10.18-17.69,15.71-26.27.69-1.07.93-2.53,2.45-2.9,6.72,9.11,11.52,19.38,17.38,29,.86,1.42.13,2.85-.66,4.21-5,8.63-10,17.25-14.93,26-1.23,2.18-2.78,2.87-5.22,2.83-11-.14-22-.11-32.95-.14,0-.25,0-.5,0-.76a272.34,272.34,0,0,0,18-31.08C126,93.73,126,93.44,126.09,93.15Z"/><path class="cls-6" d="M107.85,125.09c0,.26,0,.51,0,.76-11,0-21.92,0-32.87.12-2.13,0-3.71-.28-4.9-2.42C64.82,114,59.36,104.49,54,95a2.56,2.56,0,0,1,.81-.48l28.12.15c5.88-.71,8.68,2.59,11.26,7.44C98.36,109.94,102.49,117.9,107.85,125.09Z"/><path class="cls-7" d="M18.09,32.1,54.71,32c1.09,2.2,2.16,4.42,3.28,6.6C62.16,46.73,67.83,54.08,71,62.76c-10.76.08-21.52.1-32.28.27a4.85,4.85,0,0,1-4.71-2.9Q26.12,46.09,18.09,32.1Z"/><path class="cls-8" d="M71.75,63.22,105.26,63a2.81,2.81,0,0,1,2.63,1,212,212,0,0,0-17,30l-2,0c-4.43-9.79-10.48-18.68-15.75-28-.31-.54-1.43-.63-2.17-.93Z"/><path class="cls-9" d="M71,65c.74.3,1.86.39,2.17.93,5.27,9.31,11.32,18.2,15.75,28-2,.3-4.1-.54-6,.72l-28.12-.15c3.53-9.15,9.34-17,13.9-25.64C69.38,67.54,70.19,66.28,71,65Z"/><path class="cls-10" d="M71,62.76c-3.21-8.68-8.88-16-13.05-24.19-1.12-2.18-2.19-4.4-3.28-6.6L89,31.84c-3.79,9.87-10,18.43-15,27.62-.63,1.16-1.3,2.28-2,3.42A1.89,1.89,0,0,1,71,62.76Z"/><path class="cls-11" d="M90.84,94a212,212,0,0,1,17-30c5.43,7.24,9.28,15.44,14,23.11,1.29,2.1,2.3,4.37,4.19,6.05-.07.29-.14.58-.22.86Z"/><path class="cls-12" d="M90.84,94l35,.06a272.34,272.34,0,0,1-18,31.08c-5.36-7.19-9.49-15.15-13.69-23-2.58-4.85-5.38-8.15-11.26-7.44,1.87-1.26,4-.42,6-.72Z"/></g></g></svg>